<?xml version="1.0" encoding="utf-8"?>
<!-- Generator: Adobe Illustrator 19.0.0, SVG Export Plug-In . SVG Version: 6.00 Build 0)  -->
<!DOCTYPE svg PUBLIC "-//W3C//DTD SVG 1.1//EN" "http://www.w3.org/Graphics/SVG/1.1/DTD/svg11.dtd">
<svg version="1.1" id="Layer_1" xmlns="http://www.w3.org/2000/svg" xmlns:xlink="http://www.w3.org/1999/xlink" x="0px" y="0px"
	 viewBox="0 0 191.6 32.8" style="enable-background:new 0 0 191.6 32.8;" xml:space="preserve">
<style type="text/css">
	.st0{fill:#498FCD;}
	.st1{fill:#FFFFFF;}
	.st2{fill:#80C342;}
</style>
<g id="XMLID_255_">
	<g id="XMLID_337_">
		<path id="XMLID_363_" class="st0" d="M48.6,9.1c1.1,0.5,2,1.1,2.8,1.9l-2.2,2.7c-0.5-0.6-1.1-1.1-1.8-1.5
			c-0.7-0.4-1.4-0.5-2.1-0.5c-0.8,0-1.5,0.2-2.2,0.6c-0.6,0.4-1.2,0.9-1.5,1.6S41,15.2,41,16.1c0,0.8,0.2,1.6,0.6,2.3
			c0.4,0.7,0.9,1.2,1.5,1.6c0.6,0.4,1.4,0.6,2.2,0.6c0.6,0,1.3-0.2,2-0.5c0.7-0.3,1.3-0.8,1.8-1.3l2.3,2.4c-0.8,0.8-1.8,1.5-2.9,2
			c-1.1,0.5-2.2,0.8-3.4,0.8c-1.5,0-2.9-0.3-4.1-1c-1.2-0.7-2.2-1.6-2.9-2.8c-0.7-1.2-1-2.5-1-4c0-1.5,0.4-2.8,1.1-3.9
			c0.7-1.2,1.7-2.1,2.9-2.8s2.6-1,4.1-1C46.3,8.4,47.5,8.6,48.6,9.1z"/>
		<path id="XMLID_360_" class="st0" d="M61.6,13c0.9,0.7,1.3,1.8,1.4,3.1v7.7h-3.7v-1.4c-0.4,0.5-0.9,0.9-1.5,1.1
			c-0.6,0.3-1.3,0.4-2.1,0.4c-1.2,0-2.2-0.3-2.9-1c-0.7-0.7-1.1-1.6-1.1-2.7c0-1.1,0.4-2,1.2-2.6c0.8-0.6,1.9-0.9,3.3-0.9h3.1v-0.2
			c0-0.6-0.2-1-0.6-1.4c-0.4-0.3-1-0.5-1.7-0.5c-0.5,0-1.1,0.1-1.7,0.2c-0.6,0.2-1.2,0.4-1.8,0.7l-1.1-2.5c1-0.4,1.9-0.8,2.7-1
			s1.8-0.3,2.7-0.3C59.5,11.9,60.7,12.2,61.6,13z M58.4,21c0.5-0.3,0.7-0.7,0.8-1.2v-1h-2.4c-0.6,0-1,0.1-1.3,0.3s-0.4,0.5-0.4,1
			c0,0.4,0.1,0.8,0.4,1c0.3,0.2,0.7,0.4,1.2,0.4C57.4,21.4,58,21.2,58.4,21z"/>
		<path id="XMLID_358_" class="st0" d="M83.9,13.1c0.8,0.8,1.1,1.9,1.1,3.3v7.4h-3.7v-6.4c0-0.7-0.2-1.2-0.5-1.6s-0.9-0.6-1.5-0.6
			c-0.7,0-1.2,0.3-1.7,0.8s-0.6,1.2-0.6,2v5.8h-3.8v-6.4c0-0.7-0.2-1.2-0.5-1.6c-0.4-0.4-0.8-0.6-1.5-0.6c-0.7,0-1.3,0.3-1.7,0.8
			s-0.6,1.2-0.6,2v5.8h-3.8V12h3.8V14c0.4-0.7,0.9-1.2,1.6-1.6c0.7-0.3,1.4-0.5,2.3-0.5c0.9,0,1.8,0.2,2.5,0.7
			c0.7,0.5,1.2,1.1,1.5,2c0.4-0.9,0.9-1.5,1.6-2c0.7-0.4,1.5-0.7,2.5-0.7C82.1,11.9,83.1,12.3,83.9,13.1z"/>
		<path id="XMLID_355_" class="st0" d="M97.4,12.6c0.8,0.5,1.5,1.2,1.9,2.1c0.5,0.9,0.7,2,0.7,3.2c0,1.2-0.2,2.2-0.7,3.1
			c-0.5,0.9-1.1,1.6-1.9,2.1c-0.8,0.5-1.8,0.7-2.9,0.7c-0.8,0-1.4-0.1-2-0.4c-0.6-0.3-1.1-0.7-1.5-1.3V28h-3.8V12H91v1.6
			c0.4-0.5,0.9-1,1.5-1.2s1.3-0.4,2-0.4C95.6,11.9,96.6,12.1,97.4,12.6z M95.5,20.1c0.5-0.6,0.7-1.3,0.7-2.2c0-0.9-0.2-1.6-0.7-2.2
			c-0.5-0.6-1.1-0.9-1.9-0.9c-0.8,0-1.4,0.3-1.9,0.9c-0.5,0.6-0.7,1.3-0.7,2.2c0,0.9,0.2,1.7,0.7,2.2c0.5,0.6,1.1,0.9,1.9,0.9
			C94.4,20.9,95,20.6,95.5,20.1z"/>
		<path id="XMLID_353_" class="st0" d="M112.9,23.8h-3.8v-1.9c-0.8,1.4-2.1,2.1-3.8,2.1c-1.3,0-2.3-0.4-3.1-1.2
			c-0.8-0.8-1.1-1.9-1.1-3.3V12h3.8v6.3c0,0.7,0.2,1.2,0.5,1.6c0.4,0.4,0.8,0.6,1.4,0.6c0.7,0,1.3-0.3,1.7-0.8
			c0.4-0.5,0.6-1.2,0.6-2V12h3.8V23.8z"/>
		<path id="XMLID_351_" class="st0" d="M122.1,12.2c0.8,0.2,1.6,0.6,2.3,1l-1.3,2.4c-1.5-0.8-2.7-1.2-3.7-1.2
			c-0.3,0-0.6,0.1-0.8,0.2c-0.2,0.1-0.3,0.3-0.3,0.6c0,0.3,0.2,0.5,0.5,0.7s0.8,0.4,1.6,0.6c0.8,0.2,1.5,0.5,2.1,0.7s1,0.6,1.4,1.1
			s0.6,1.1,0.6,1.9c0,1.2-0.5,2.1-1.4,2.8s-2.1,1-3.6,1c-1,0-1.9-0.1-2.9-0.4c-0.9-0.3-1.7-0.7-2.4-1.2l1.2-2.4
			c0.7,0.5,1.3,0.8,2.1,1.1c0.7,0.3,1.4,0.4,2.1,0.4c0.4,0,0.7-0.1,0.9-0.2c0.2-0.1,0.3-0.3,0.3-0.6c0-0.3-0.2-0.5-0.5-0.7
			s-0.9-0.4-1.6-0.6c-0.8-0.2-1.5-0.5-2-0.7c-0.5-0.2-1-0.6-1.4-1.1c-0.4-0.5-0.6-1.1-0.6-1.9c0-1.2,0.4-2.1,1.3-2.8s2-1,3.4-1
			C120.4,11.9,121.3,12,122.1,12.2z"/>
		<path id="XMLID_349_" class="st0" d="M137.6,11.6v12.1h-3.9V11.6h-4.6V8.5h13v3.1H137.6z"/>
		<path id="XMLID_347_" class="st0" d="M148.2,12.4c0.6-0.4,1.4-0.6,2.2-0.6v3.4c-0.1,0-0.3,0-0.5,0c-0.9,0-1.7,0.2-2.3,0.7
			c-0.6,0.5-0.9,1.1-1,1.8v6h-3.8V12h3.8v2C147.1,13.3,147.6,12.8,148.2,12.4z"/>
		<path id="XMLID_344_" class="st0" d="M160.4,13c0.9,0.7,1.3,1.8,1.4,3.1v7.7H158v-1.4c-0.4,0.5-0.9,0.9-1.5,1.1
			c-0.6,0.3-1.3,0.4-2.1,0.4c-1.2,0-2.2-0.3-2.9-1c-0.7-0.7-1.1-1.6-1.1-2.7c0-1.1,0.4-2,1.2-2.6c0.8-0.6,1.9-0.9,3.3-0.9h3.1v-0.2
			c0-0.6-0.2-1-0.6-1.4c-0.4-0.3-1-0.5-1.7-0.5c-0.5,0-1.1,0.1-1.7,0.2c-0.6,0.2-1.2,0.4-1.8,0.7l-1.1-2.5c1-0.4,1.9-0.8,2.7-1
			s1.8-0.3,2.7-0.3C158.2,11.9,159.5,12.2,160.4,13z M157.2,21c0.5-0.3,0.7-0.7,0.8-1.2v-1h-2.4c-0.6,0-1,0.1-1.3,0.3
			s-0.4,0.5-0.4,1c0,0.4,0.1,0.8,0.4,1c0.3,0.2,0.7,0.4,1.2,0.4C156.2,21.4,156.7,21.2,157.2,21z"/>
		<path id="XMLID_341_" class="st0" d="M175.7,23.8h-3.8v-1.5c-0.9,1.1-2,1.7-3.5,1.7c-1.1,0-2.1-0.3-2.9-0.8
			c-0.8-0.5-1.5-1.2-1.9-2.1c-0.5-0.9-0.7-2-0.7-3.2c0-1.2,0.2-2.2,0.7-3.1c0.5-0.9,1.1-1.6,1.9-2.1c0.8-0.5,1.8-0.7,2.8-0.7
			c0.8,0,1.5,0.1,2.1,0.4c0.6,0.3,1.1,0.7,1.5,1.3v-6h3.8V23.8z M171.2,20.2c0.5-0.6,0.7-1.3,0.7-2.2c0-0.9-0.2-1.6-0.7-2.2
			c-0.5-0.6-1.1-0.9-1.9-0.9c-0.8,0-1.4,0.3-1.9,0.8c-0.5,0.6-0.7,1.3-0.7,2.2c0,0.9,0.3,1.7,0.7,2.2c0.5,0.6,1.1,0.9,1.9,0.9
			C170.1,21,170.7,20.7,171.2,20.2z"/>
		<path id="XMLID_338_" class="st0" d="M187.8,13.6c1,1.1,1.5,2.7,1.5,4.6c0,0.3,0,0.6,0,0.7h-8.3c0.2,0.7,0.5,1.2,1,1.6
			c0.5,0.4,1.1,0.6,1.8,0.6c0.5,0,1-0.1,1.5-0.3c0.5-0.2,0.9-0.5,1.3-0.9l2,1.9c-0.6,0.7-1.4,1.2-2.2,1.5c-0.9,0.4-1.8,0.5-2.9,0.5
			c-1.3,0-2.4-0.2-3.3-0.7c-0.9-0.5-1.7-1.2-2.2-2.1c-0.5-0.9-0.8-1.9-0.8-3.1c0-1.2,0.3-2.2,0.8-3.2c0.5-0.9,1.2-1.6,2.2-2.1
			c0.9-0.5,2-0.8,3.2-0.8C185.3,11.9,186.8,12.5,187.8,13.6z M185.1,15.2c-0.4-0.4-1-0.6-1.6-0.6c-0.6,0-1.2,0.2-1.6,0.6
			c-0.4,0.4-0.7,1-0.8,1.7h4.7C185.7,16.2,185.5,15.6,185.1,15.2z"/>
	</g>
	<path id="XMLID_259_" class="st1" d="M31.5,16.4c0,1-0.1,2.1-0.3,3c0.1,0,0.1,0,0.2,0c0.1-0.9,0.2-1.9,0.2-2.9
		c0-2.2-0.4-4.2-1.1-6.2h-0.1C31.2,12.2,31.5,14.3,31.5,16.4z"/>
	<path id="XMLID_256_" class="st2" d="M3.2,10.8l4.5,0.7c1.2,0.5,2.1-0.1,2.1-0.1s3.1-2,4.6-2c1.5,0,2.1,0.9,2.1,0.9
		s-2.2,1.2-3.2,1.8c-0.7,0.4-1.1,1.2-1.1,2c0,1.3,1.1,2.4,2.4,2.4c0.2,0,0.7-0.1,1.4-0.5c0.6-0.3,1.5-0.7,2.1-1
		c0.9-0.4,1.6,0.3,1.6,0.3c2.3,2.3,0.3,0.3,4.6,4.6c0,0,0,0,0,0c0.4,0.4,0.4,1.1,0,1.5c-0.4,0.4-1.1,0.4-1.5,0c0,0-1.7-1.8-1.9-1.7
		c-0.1,0.1,1.6,2,1.6,2c0.3,0.4,0.3,1-0.1,1.4c-0.4,0.4-1,0.4-1.5,0c0,0-2.3-2.2-2.5-2c-0.1,0.1,1.7,1.8,1.7,1.8
		c0,0,0.1,0.1,0.1,0.1c0.4,0.4,0.4,1.1,0,1.5c-0.4,0.4-1.1,0.4-1.5,0c0,0-1.9-2-2-1.9c-0.1,0.1,1.4,1.7,1.4,1.7
		c0.4,0.4,0.4,1.1,0,1.5c-0.4,0.4-1.1,0.4-1.5,0c-0.2-0.2-0.5-0.6-0.6-0.6c0,0,0,0,0,0c0.1-0.8-0.1-1.5-0.6-2.1
		c-0.3-0.3-0.6-0.5-1-0.6c-0.1-0.4-0.3-0.8-0.6-1.1c-0.3-0.3-0.6-0.5-1-0.6c-0.1-0.4-0.3-0.7-0.6-1c-0.3-0.3-0.6-0.5-1-0.6
		c-0.1-0.4-0.3-0.7-0.6-1c-0.9-1-2.6-0.9-3.6,0c-0.3,0.3-0.5,0.7-0.7,1.1c-0.4-0.2-2.8-0.3-4.2-0.4c1.3,6.8,7.2,12,14.4,12
		c7.3,0,13.3-5.3,14.5-12.2c-1.5,0.1-3.6,0.2-3.8,0.3c-0.3,0-1.3,0.4-2.1-0.3c-1.1-1.1-5.1-5.1-5.1-5.1s-0.7-0.7-1.8-0.1
		c-1,0.5-2.5,1.3-3.2,1.6c-1.2,0.6-2.2-0.4-2.2-1.1c0-0.6,0.4-1,0.9-1.3c1.4-0.9,4.5-2.6,5.7-3.2c0.8-0.4,1.3-0.4,2.4,0.4
		c1.3,1.1,2.4,2.1,2.4,2.1s0.4,0.3,1,0.2c1.5-0.3,3.8-0.8,3.8-0.8h1.3c-2-5.7-7.5-9.8-13.9-9.8C10.6,1.7,5.4,5.4,3.2,10.8z
		 M14.7,26.1c-0.6,0.6-1.8,0.9-2.4,0.2c-0.5-0.6-0.1-1.1,0.1-1.6c-0.5,0.2-1.3,0.5-1.7-0.1c-0.5-0.6-0.1-1,0-1.5
		c-0.5,0.1-1.1,0.5-1.6-0.1c-0.5-0.6-0.1-1,0-1.5c-0.5,0.1-1.1,0.5-1.6-0.1C7,20.8,7.4,19.8,8,19.2c0.6-0.6,1.5-0.6,2-0.1
		c0.3,0.3,0.4,0.8,0.3,1.3c0.5-0.1,1,0,1.3,0.3c0.3,0.3,0.4,0.8,0.3,1.3c0.5-0.1,1,0,1.3,0.3c0.4,0.4,0.4,0.9,0.2,1.4
		c0.5-0.2,1-0.1,1.4,0.3C15.4,24.7,15.3,25.6,14.7,26.1z"/>
</g>
</svg>
